# xmcd
# Track frame offsets:
# 150
# 15627
# 26809
# 37816
# 52703
# 66755
# 76917
# 90462
# 102693
# 114514
# 126984
# 141314
# 155081
# 169082
# 181712
# 193242
# 206298
# 219695
# 236793
#
# Disc length: 3334 seconds
# Revision: 0
# Processed by: cddbd v1.5PL3 Copyright (c) Steve Scherf et al.
# Submitted via: VisiTrax 2.9.7.197 - For more info visit www.synapsa.com
#
DISCID=070d0413
DTITLE=The Next Of Kin - The Best Of
DYEAR=1999
DGENRE=
TTITLE0=Almost Persuaded
TTITLE1=Catfish John
TTITLE2=On The Road Again
TTITLE3=Hot Blooded Woman
TTITLE4=Medley
TTITLE5=Welcome To The Sunshine
TTITLE6=Kaw - Liga
TTITLE7=If You Go I'll Follow You
TTITLE8=San Antonio Rose
TTITLE9=The Rarest Flowers
TTITLE10=Crying Time
TTITLE11=Take Me Back To Yesterday Once More
TTITLE12=I'm Not The Boy I Used To Be
TTITLE13=Home Town Life
TTITLE14=Beneath The Sweet Magnoliatree
TTITLE15=The Lord Made A Hobo Out Of Me
TTITLE16=By You Side
TTITLE17=Each Day My Whole Life Throgh
TTITLE18=The Wayward Wind
EXTD=
EXTT0=
EXTT1=
EXTT2=
EXTT3=
EXTT4=
EXTT5=
EXTT6=
EXTT7=
EXTT8=
EXTT9=
EXTT10=
EXTT11=
EXTT12=
EXTT13=
EXTT14=
EXTT15=
EXTT16=
EXTT17=
EXTT18=
PLAYORDER=
